<svg xmlns="http://www.w3.org/2000/svg" viewBox="0 0 512 512">
  <g fill="#000">
    <path d="M92 132c0-31 25-56 56-56h48c31 0 56 25 56 56v84c0 31-25 56-56 56h-48c-31 0-56-25-56-56zm56-8c-13 0-24 11-24 24v52c0 13 11 24 24 24h48c13 0 24-11 24-24v-52c0-13-11-24-24-24z"/>
    <path d="M275 80h39l54 79 54-79h39v192h-42V148l-51 74-51-74v124h-42z"/>
    <path d="M81 304c66 18 118 20 175 82 57-62 109-64 175-82-18 46-54 83-101 104-29 13-52 29-74 52-22-23-45-39-74-52-47-21-83-58-101-104z"/>
    <path d="M112 280c52 17 94 22 144 67 50-45 92-50 144-67-22 33-52 58-88 72-22 9-39 20-56 36-17-16-34-27-56-36-36-14-66-39-88-72z"/>
  </g>
</svg>
